<?xml version="1.0" encoding="utf-8"?>

<svg version="1.1" id="Icons" xmlns="http://www.w3.org/2000/svg"
	 viewBox="0 0 32 32" xml:space="preserve">
<style type="text/css">
	.st0{fill:none;stroke:#c084fc;stroke-width:2;stroke-linejoin:round;stroke-miterlimit:10;}
	.st1{fill:none;stroke:#c084fc;stroke-width:2;stroke-linecap:round;stroke-linejoin:round;stroke-miterlimit:10;}
</style>
<polyline class="st1" points="12.5,21.4 11,19.9 22.4,8.5 "/>
<polygon class="st1" points="25.4,10 22.4,10 22.4,7 26.2,3.2 29.2,6.2 "/>
<path class="st1" d="M19.3,11.6c-2.2-1.5-5.1-1.3-6.9,0.5c-0.4,0.4-0.8,1-1,1.5c-0.4,0.9-1.3,1.5-2.2,1.6c-0.9,0.1-1.9,0.2-2.7,0.6
	c-4,2.1-4.1,7.5-0.7,10.9c3.4,3.4,8.8,3.3,10.9-0.7c0.4-0.8,0.5-1.8,0.6-2.7c0.1-0.9,0.7-1.8,1.6-2.2c0.2-0.1,0.7-0.3,1.1-0.4
	c0.8-0.2,1.4-0.9,1.7-1.6v0c0.2-0.6,0-1.3-0.6-1.6l-1.6-0.9"/>
<line class="st1" x1="8" y1="21.4" x2="11" y2="24.4"/>
</svg>
