<svg
   xmlns="http://www.w3.org/2000/svg"
   width="21"
   height="21"
   viewBox="0 0 32 32"
>
   <path
      fill="#c084fc"
      d="M0 0v32h32V0H0zm17.6 24.8c0 2.4-1.4 3.5-3.4 3.5-1.8 0-2.8-0.9-3.3-2l1.8-1.1c0.3 0.6 0.7 1.1 1.5 1.1 0.8 0 1.3-0.3 1.3-1.5v-7.9h2.1v7.9zm7.1 3.5c-2.1 0-3.5-1-4.2-2.3l1.8-1.1c0.5 0.8 1.1 1.4 2.1 1.4 0.9 0 1.5-0.4 1.5-1 0-0.7-0.6-0.9-1.6-1.3l-0.6-0.2c-1.7-0.6-2.8-1.4-2.8-3.1 0-1.5 1.1-2.6 2.9-2.6 1.3 0 2.3 0.5 3 1.7l-1.7 1c-0.4-0.7-0.9-1-1.4-1-0.6 0-1 0.4-1 0.9 0 0.6 0.4 0.8 1.4 1.2l0.6 0.2c2 0.7 3.1 1.5 3.1 3.3 0 1.9-1.5 2.8-3.5 2.8z"
    />
</svg>
